HIERARCHY
ROOT Pelvis
{
	OFFSET 0.000000 0.000000 0.000000
	CHANNELS 6 Xposition Yposition Zposition Xrotation Yrotation Zrotation
	JOINT LeftUpLeg_virtual
	{
		OFFSET 0.000000 0.000000 0.000000
		CHANNELS 3 Xrotation Yrotation Zrotation
		JOINT LeftUpLeg
		{
			OFFSET 18.735201 -5.666702 -4.541200
			CHANNELS 3 Xrotation Yrotation Zrotation
			JOINT LeftLeg
			{
				OFFSET -0.021200 -31.938179 0.493100
				CHANNELS 3 Xrotation Yrotation Zrotation
				JOINT LeftFoot
				{
					OFFSET 0.021200 -31.938179 -4.336299
					CHANNELS 3 Xrotation Yrotation Zrotation
					JOINT LeftToeBase
					{
						OFFSET 0.943001 -26.722000 15.023500
						CHANNELS 3 Xrotation Yrotation Zrotation
						End Site
						{
							OFFSET 0 0 0
						}
					}
				}
			}
		}
	}
	JOINT RightUpLeg_virtual
	{
		OFFSET 0.000000 0.000000 0.000000
		CHANNELS 3 Xrotation Yrotation Zrotation
		JOINT RightUpLeg
		{
			OFFSET -18.735201 -5.666702 -4.541200
			CHANNELS 3 Xrotation Yrotation Zrotation
			JOINT RightLeg
			{
				OFFSET 0.018946 -31.938133 0.493100
				CHANNELS 3 Xrotation Yrotation Zrotation
				JOINT RightFoot
				{
					OFFSET -0.018946 -31.938126 -4.336299
					CHANNELS 3 Xrotation Yrotation Zrotation
					JOINT RightToeBase
					{
						OFFSET -0.943001 -26.722004 15.023500
						CHANNELS 3 Xrotation Yrotation Zrotation
						End Site
						{
							OFFSET 0 0 0
						}
					}
				}
			}
		}
	}
	JOINT Hips_virtual
	{
		OFFSET 0.000000 0.000000 0.000000
		CHANNELS 3 Xrotation Yrotation Zrotation
		JOINT Hips
		{
			OFFSET -0.000000 -0.000000 -0.000000
			CHANNELS 3 Xrotation Yrotation Zrotation
			JOINT Spine
			{
				OFFSET 0.000000 10.199997 -0.299500
				CHANNELS 3 Xrotation Yrotation Zrotation
				JOINT Spine1
				{
					OFFSET 0.000000 11.900002 -1.516600
					CHANNELS 3 Xrotation Yrotation Zrotation
					JOINT Spine2
					{
						OFFSET 0.000000 13.600006 -2.842500
						CHANNELS 3 Xrotation Yrotation Zrotation
						JOINT Neck_virtual
						{
							OFFSET 0.000000 0.000000 0.000000
							CHANNELS 3 Xrotation Yrotation Zrotation
							JOINT Neck
							{
								OFFSET 0.000000 9.624100 -2.890100
								CHANNELS 3 Xrotation Yrotation Zrotation
								JOINT Head
								{
									OFFSET 0.000000 14.068802 -1.351900
									CHANNELS 3 Xrotation Yrotation Zrotation
									End Site
									{
										OFFSET 0 0 0
									}
								}
							}
						}
						JOINT LeftShoulder_virtual
						{
							OFFSET 0.000000 0.000000 0.000000
							CHANNELS 3 Xrotation Yrotation Zrotation
							JOINT LeftShoulder
							{
								OFFSET 15.263000 10.923401 -0.547700
								CHANNELS 3 Xrotation Yrotation Zrotation
								JOINT LeftArm
								{
									OFFSET 25.438599 -2.830597 -13.032500
									CHANNELS 3 Xrotation Yrotation Zrotation
									JOINT LeftForeArm
									{
										OFFSET 29.960503 0.000000 0.000000
										CHANNELS 3 Xrotation Yrotation Zrotation
										JOINT LeftHand
										{
											OFFSET 27.849251 0.000000 0.000000
											CHANNELS 3 Xrotation Yrotation Zrotation
											End Site
											{
												OFFSET 0 0 0
											}
										}
									}
								}
							}
						}
						JOINT RightShoulder_virtual
						{
							OFFSET 0.000000 0.000000 0.000000
							CHANNELS 3 Xrotation Yrotation Zrotation
							JOINT RightShoulder
							{
								OFFSET -15.263000 10.923401 -0.547700
								CHANNELS 3 Xrotation Yrotation Zrotation
								JOINT RightArm
								{
									OFFSET -25.438599 -2.830597 -13.032500
									CHANNELS 3 Xrotation Yrotation Zrotation
									JOINT RightForeArm
									{
										OFFSET -29.960503 0.000000 0.000000
										CHANNELS 3 Xrotation Yrotation Zrotation
										JOINT RightHand
										{
											OFFSET -27.849251 0.000000 0.000000
											CHANNELS 3 Xrotation Yrotation Zrotation
											End Site
											{
												OFFSET 0 0 0
											}
										}
									}
								}
							}
						}
					}
				}
			}
		}
	}
}
MOTION
Frames: 11
Frame Time: 0.03333333
5.423005 71.699120 53.437515 0.000000 0.000000 0.000000 -9.713181 -37.573444 4.193607 -56.075583 -4.706734 21.675815 59.345970 -12.978790 -1.957744 1.174699 -11.901678 -19.557215 0.000000 0.000000 0.000000 -0.838022 -27.483455 -11.845573 -32.349647 -7.492749 -30.040309 67.614180 7.846034 -2.331975 2.826113 6.209521 15.759799 0.000000 0.000000 0.000000 -8.446658 -30.537605 -1.631920 -6.253244 -5.421065 -11.212871 17.028772 3.889139 -6.154907 5.609605 2.441861 -1.849047 0.000000 0.000000 0.000000 5.086912 2.260344 -0.501049 1.261059 2.732978 -0.656803 0.000000 0.000000 0.000000 3.161061 0.964309 0.343865 1.634033 5.174626 -6.050311 -56.423254 -16.620082 -51.858543 -62.535306 -80.307035 -56.833731 0.000000 0.000000 0.000000 3.155005 1.214544 -1.122460 3.396134 12.483467 -2.767526 -38.038898 24.986251 70.424428 -162.493315 64.472198 164.566387 0.000000 0.000000 0.000000 
5.012966 72.202904 52.008419 0.000000 0.000000 0.000000 -9.186803 -37.373846 4.566114 -55.535752 -4.683489 21.877965 58.628602 -12.994426 -2.255946 0.646934 -11.712738 -19.985644 0.000000 0.000000 0.000000 -0.065663 -28.885007 -11.209298 -31.501833 -8.215144 -29.799060 65.893075 7.943747 -1.348109 0.930783 5.385915 17.079716 0.000000 0.000000 0.000000 -8.374875 -30.464546 -1.409281 -6.265663 -5.585244 -10.377877 16.638964 4.077232 -5.964636 5.426820 2.507254 -1.762627 0.000000 0.000000 0.000000 5.189982 2.272587 -0.733413 1.304730 2.728787 -0.755485 0.000000 0.000000 0.000000 3.176388 1.019303 0.166000 1.710212 5.323610 -6.583751 -56.196823 -16.533725 -52.096680 -62.695871 -80.323701 -57.061548 0.000000 0.000000 0.000000 3.197070 1.288348 -1.284426 3.523758 12.757522 -3.335887 -38.411112 25.451686 70.228954 -162.809252 64.305295 164.799583 0.000000 0.000000 0.000000 
4.621690 72.760185 50.504623 0.000000 0.000000 0.000000 -8.671754 -37.165668 4.844260 -54.991301 -4.611162 22.010754 57.904561 -12.982711 -2.512282 0.133116 -11.524262 -20.331091 0.000000 0.000000 0.000000 0.732235 -30.261133 -10.471215 -30.655938 -8.953727 -29.468298 64.018940 7.811668 -0.358890 -0.907265 4.380241 18.141882 0.000000 0.000000 0.000000 -8.239696 -30.364907 -1.177428 -6.068898 -5.697744 -9.616771 16.267059 4.245373 -5.778313 5.254658 2.559919 -1.679016 0.000000 0.000000 0.000000 5.269357 2.276435 -0.950381 1.335850 2.717565 -0.850230 0.000000 0.000000 0.000000 3.183037 1.066957 0.000320 1.778912 5.438220 -7.095593 -56.062613 -16.441741 -52.362013 -63.270733 -80.347770 -57.684506 0.000000 0.000000 0.000000 3.214303 1.351521 -1.435406 3.623619 13.003820 -3.863927 -38.761522 25.885355 70.052947 -163.084017 64.196688 164.989271 0.000000 0.000000 0.000000 
4.266244 73.374283 48.939247 0.000000 0.000000 0.000000 -8.179937 -36.971080 5.019771 -54.456511 -4.495370 22.067737 57.189396 -12.945271 -2.729294 -0.360167 -11.336046 -20.598382 0.000000 0.000000 0.000000 1.519647 -31.558343 -9.655263 -29.848842 -9.679051 -29.053712 62.042672 7.453880 0.586160 -2.632397 3.251994 18.915890 0.000000 0.000000 0.000000 -8.058511 -30.250054 -0.949848 -5.709813 -5.759391 -8.969483 15.916431 4.387782 -5.598415 5.093889 2.597174 -1.599050 0.000000 0.000000 0.000000 5.318865 2.273558 -1.141229 1.352231 2.701168 -0.935444 0.000000 0.000000 0.000000 3.181561 1.105858 -0.145965 1.839578 5.516880 -7.558267 -56.034390 -16.352675 -52.641764 -64.298335 -80.382516 -58.735092 0.000000 0.000000 0.000000 3.205017 1.403655 -1.569380 3.691583 13.221874 -4.329449 -39.098281 26.274624 69.899295 -163.316995 64.137887 165.133429 0.000000 0.000000 0.000000 
3.962139 74.051903 47.327797 0.000000 0.000000 0.000000 -7.715401 -36.804898 5.092917 -53.939288 -4.341519 22.048395 56.508320 -12.890872 -2.912202 -0.823328 -11.152785 -20.802675 0.000000 0.000000 0.000000 2.268196 -32.723880 -8.786180 -29.105745 -10.364803 -28.562335 60.019099 6.890885 1.440326 -4.201866 2.062977 19.393772 0.000000 0.000000 0.000000 -7.847117 -30.129768 -0.737846 -5.235685 -5.778307 -8.466767 15.590802 4.501030 -5.426996 4.945655 2.617805 -1.523280 0.000000 0.000000 0.000000 5.333542 2.266353 -1.296292 1.352395 2.681617 -1.005994 0.000000 0.000000 0.000000 3.172719 1.135398 -0.266418 1.891970 5.559363 -7.947139 -56.122626 -16.276713 -52.922300 -65.814555 -80.430511 -60.243990 0.000000 0.000000 0.000000 3.169954 1.445242 -1.680659 3.726203 13.413766 -4.711182 -39.425669 26.610316 69.775020 -163.506929 64.119917 165.232385 0.000000 0.000000 0.000000 
3.721437 74.799660 45.686413 0.000000 0.000000 0.000000 -7.272584 -36.678143 5.072476 -53.439041 -4.155035 21.958088 55.897083 -12.835571 -3.068048 -1.242812 -10.984767 -20.968370 0.000000 0.000000 0.000000 2.957157 -33.713752 -7.888564 -28.441495 -10.989795 -28.003123 58.004384 6.159935 2.166079 -5.586240 0.871593 19.590174 0.000000 0.000000 0.000000 -7.617538 -30.013504 -0.549051 -4.683802 -5.769787 -8.123470 15.294341 4.584077 -5.265193 4.811577 2.622078 -1.451762 0.000000 0.000000 0.000000 5.311012 2.257633 -1.408599 1.336110 2.660990 -1.058103 0.000000 0.000000 0.000000 3.157456 1.155748 -0.356124 1.936241 5.567097 -8.243355 -56.332125 -16.224752 -53.190802 -67.848599 -80.492912 -62.236984 0.000000 0.000000 0.000000 3.112136 1.477631 -1.764577 3.728888 13.583972 -4.991556 -39.743856 26.887928 69.690005 -163.653436 64.133455 165.289717 0.000000 0.000000 0.000000 
3.550887 75.620590 44.030090 0.000000 0.000000 0.000000 -6.836733 -36.601064 4.974098 -52.946339 -3.941518 21.806711 55.397305 -12.799833 -3.204073 -1.602575 -10.846179 -21.124110 0.000000 0.000000 0.000000 3.573131 -34.499197 -6.985325 -27.862806 -11.539483 -27.387129 56.053027 5.312552 2.740879 -6.768528 -0.271572 19.540673 0.000000 0.000000 0.000000 -7.377303 -29.911301 -0.386865 -4.076761 -5.754858 -7.935753 15.031254 4.638062 -5.113147 4.693479 2.611595 -1.384045 0.000000 0.000000 0.000000 5.252315 2.250246 -1.475112 1.304683 2.641272 -1.090042 0.000000 0.000000 0.000000 3.136683 1.167764 -0.412298 1.972845 5.543342 -8.436066 -56.660818 -16.207023 -53.437054 -70.419298 -80.568324 -64.731895 0.000000 0.000000 0.000000 3.036271 1.502863 -1.818138 3.703549 13.738801 -5.159308 -40.050327 27.107267 69.654850 -163.757610 64.168890 165.311779 0.000000 0.000000 0.000000 
3.450509 76.511894 42.370911 0.000000 0.000000 0.000000 -6.386772 -36.584341 4.817266 -52.444450 -3.706598 21.606122 55.046373 -12.802583 -3.325455 -1.888187 -10.750835 -21.294110 0.000000 0.000000 0.000000 4.110183 -35.069627 -6.095701 -27.369816 -12.006679 -26.726952 54.214773 4.409687 3.160881 -7.742309 -1.326141 19.299038 0.000000 0.000000 0.000000 -7.130194 -29.834328 -0.250974 -3.423940 -5.758588 -7.883293 14.804975 4.665847 -4.970378 4.592883 2.588998 -1.319432 0.000000 0.000000 0.000000 5.161952 2.246659 -1.497269 1.260888 2.624168 -1.102425 0.000000 0.000000 0.000000 3.110931 1.172831 -0.434633 2.002247 5.493099 -8.523584 -57.099545 -16.231379 -53.654520 -73.530299 -80.651427 -67.734269 0.000000 0.000000 0.000000 2.947887 1.523402 -1.840483 3.655804 13.885407 -5.211378 -40.342266 27.270789 69.678612 -163.821910 64.216783 165.305905 0.000000 0.000000 0.000000 
3.413046 77.464127 40.716549 0.000000 0.000000 0.000000 -5.899730 -36.638132 4.621531 -51.912279 -3.455418 21.367115 54.864581 -12.853586 -3.432956 -2.092474 -10.706291 -21.488060 0.000000 0.000000 0.000000 4.570099 -35.431985 -5.233834 -26.956772 -12.391482 -26.035933 52.532064 3.515072 3.441229 -8.509441 -2.262648 18.933136 0.000000 0.000000 0.000000 -6.877887 -29.794644 -0.138655 -2.727041 -5.808424 -7.935288 14.617267 4.671443 -4.836458 4.510438 2.557563 -1.257394 0.000000 0.000000 0.000000 5.047158 2.248596 -1.480662 1.208552 2.610922 -1.098045 0.000000 0.000000 0.000000 3.080082 1.172628 -0.425292 2.024619 5.422617 -8.513211 -57.633116 -16.301616 -53.840476 -77.159383 -80.732843 -71.226162 0.000000 0.000000 0.000000 2.852414 1.541755 -1.833068 3.591991 14.030447 -5.153613 -40.618852 27.381597 69.766585 -163.849490 64.268337 165.278338 0.000000 0.000000 0.000000 
3.424675 78.461510 39.069534 0.000000 0.000000 0.000000 -5.355316 -36.769719 4.402931 -51.327574 -3.191899 21.096605 54.843759 -12.946512 -3.521583 -2.220767 -10.708161 -21.693135 0.000000 0.000000 0.000000 4.961597 -35.608672 -4.408930 -26.612652 -12.700405 -25.328076 51.037851 2.687202 3.612451 -9.078209 -3.062731 18.518219 0.000000 0.000000 0.000000 -6.621802 -29.803985 -0.046378 -1.986692 -5.931978 -8.057800 14.467406 4.659363 -4.711600 4.445432 2.520742 -1.197910 0.000000 0.000000 0.000000 4.916725 2.256778 -1.433973 1.151942 2.602161 -1.081285 0.000000 0.000000 0.000000 3.043361 1.168857 -0.388571 2.039670 5.338626 -8.419764 -58.241774 -16.416256 -53.995248 -81.245612 -80.799669 -75.152647 0.000000 0.000000 0.000000 2.754469 1.560044 -1.799487 3.518253 14.178740 -5.000080 -40.882545 27.441878 69.918959 -163.843630 64.315937 165.232822 0.000000 0.000000 0.000000 
3.467080 79.483002 37.427670 0.000000 0.000000 0.000000 -4.739439 -36.980522 4.171568 -50.669779 -2.917988 20.795952 54.941369 -13.055254 -3.581073 -2.293741 -10.736541 -21.871379 0.000000 0.000000 0.000000 5.297507 -35.635959 -3.627509 -26.323424 -12.945069 -24.619031 49.753219 1.970591 3.713567 -9.462755 -3.720026 18.126786 0.000000 0.000000 0.000000 -6.364538 -29.871877 0.028879 -1.207575 -6.153653 -8.219919 14.351655 4.634095 -4.596760 4.395539 2.481746 -1.141533 0.000000 0.000000 0.000000 4.779736 2.270822 -1.367422 1.095160 2.597838 -1.057269 0.000000 0.000000 0.000000 2.999659 1.162980 -0.330285 2.046763 5.247439 -8.263195 -58.902944 -16.568115 -54.121231 -85.676418 -80.837256 -79.408175 0.000000 0.000000 0.000000 2.657517 1.579647 -1.745001 3.439933 14.332124 -4.771165 -41.139005 27.452883 70.130327 -163.807703 64.353332 165.170367 0.000000 0.000000 0.000000 
